<?xml version="1.0" standalone="no"?><!DOCTYPE svg PUBLIC "-//W3C//DTD SVG 1.1//EN" "http://www.w3.org/Graphics/SVG/1.1/DTD/svg11.dtd"><svg t="1676271093863" class="icon" viewBox="0 0 1077 1024" version="1.1" xmlns="http://www.w3.org/2000/svg" p-id="3212" xmlns:xlink="http://www.w3.org/1999/xlink" width="210.3515625" height="200"><path d="M512 512m-512 0a512 512 0 1 0 1024 0 512 512 0 1 0-1024 0Z" fill="#4A90E2" fill-opacity="0" p-id="3213"></path><path d="M483.7376 324.266667h-134.946133c-13.482667 0-24.5248 11.042133-24.5248 24.5248v134.946133c0 13.482667 11.042133 24.5248 24.5248 24.5248h134.946133c13.482667 0 24.5248-11.042133 24.5248-24.5248v-134.946133c0-13.482667-11.042133-24.5248-24.5248-24.5248z m0 159.470933h-134.946133v-134.946133h134.946133v134.946133zM692.258133 324.266667h-134.929066c-13.482667 0-24.5248 11.042133-24.5248 24.5248v134.946133c0 13.482667 11.042133 24.5248 24.5248 24.5248h134.946133c13.482667 0 24.5248-11.042133 24.5248-24.5248v-134.946133c0-13.482667-11.042133-24.5248-24.541867-24.5248z m0 159.470933h-134.929066v-134.946133h134.946133v134.946133z m-208.520533 49.066667h-134.946133c-13.482667 0-24.5248 11.042133-24.5248 24.5248v134.946133c0 13.482667 11.042133 24.5248 24.5248 24.5248h134.946133c13.482667 0 24.5248-11.042133 24.5248-24.541867v-134.929066c0-13.482667-11.042133-24.5248-24.5248-24.5248z m0 159.453866h-134.946133v-134.929066h134.946133v134.946133z m208.520533-159.453866h-134.929066c-13.482667 0-24.5248 11.042133-24.5248 24.5248v134.946133c0 13.482667 11.042133 24.5248 24.5248 24.5248h134.946133c13.482667 0 24.5248-11.042133 24.5248-24.541867v-134.929066c0-13.482667-11.042133-24.5248-24.541867-24.5248z m0 159.453866h-134.929066v-134.929066h134.946133v134.946133z" fill="#4A90E2" p-id="3214"></path></svg>