<?xml version="1.0" standalone="no"?><!DOCTYPE svg PUBLIC "-//W3C//DTD SVG 1.1//EN" "http://www.w3.org/Graphics/SVG/1.1/DTD/svg11.dtd"><svg t="1678776403143" class="icon" viewBox="0 0 1024 1024" version="1.1" xmlns="http://www.w3.org/2000/svg" p-id="4473" xmlns:xlink="http://www.w3.org/1999/xlink" width="200" height="200"><path d="M832 192H192a128 128 0 0 0-128 128v384a128 128 0 0 0 128 128h640a128 128 0 0 0 128-128V320a128 128 0 0 0-128-128zM192 277.333333h640a42.666667 42.666667 0 0 1 42.666667 42.666667v384a42.666667 42.666667 0 0 1-42.666667 42.666667H192a42.666667 42.666667 0 0 1-42.666667-42.666667V320a42.666667 42.666667 0 0 1 42.666667-42.666667z" fill="#878F95" p-id="4474"></path><path d="M444.757333 402.816h115.285334l3.84 0.256c5.077333 0.725333 9.728 2.88 13.781333 6.293333 5.909333 4.970667 8.576 12.373333 8.576 21.44 0 9.386667-2.88 17.024-9.258667 21.909334-4.309333 3.306667-9.002667 5.333333-13.952 5.909333l-2.986666 0.170667H532.48l-0.021333 151.125333-0.277334 3.178667a26.346667 26.346667 0 0 1-7.061333 14.058666c-5.333333 5.674667-13.077333 8.149333-22.72 8.149334-9.749333 0-17.621333-2.666667-22.933333-8.682667-3.946667-4.48-6.378667-9.472-6.997334-14.805333l-0.149333-2.709334v-150.336h-28.330667l-2.922666-0.256a28.522667 28.522667 0 0 1-13.226667-5.802666c-6.4-4.885333-9.28-12.501333-9.28-21.909334 0-9.045333 2.666667-16.469333 8.576-21.44 4.224-3.584 9.109333-5.76 14.4-6.357333l3.221333-0.192z m322.389334-2.986667c9.642667 0 17.408 2.474667 22.72 8.149334 4.096 4.394667 6.570667 9.536 7.210666 15.189333l0.149334 2.858667-0.021334 185.962666-0.298666 3.306667c-0.64 4.096-2.197333 7.936-4.650667 11.370667-4.501333 6.293333-12.053333 8.64-22.122667 8.64-6.528 0-12.394667-2.112-17.088-6.272-2.133333-1.92-4.053333-3.84-5.76-5.76l-2.346666-2.901334-74.965334-97.792v87.338667l-0.277333 3.178667a26.346667 26.346667 0 0 1-7.061333 14.058666c-5.333333 5.674667-13.077333 8.149333-22.72 8.149334-9.749333 0-17.621333-2.666667-22.933334-8.682667-3.946667-4.48-6.378667-9.472-6.997333-14.805333l-0.149333-2.709334 0.021333-185.322666 0.277333-3.413334c0.618667-4.181333 2.154667-8.106667 4.565334-11.605333 4.501333-6.506667 12.202667-8.938667 22.528-8.938667 6.634667 0 12.544 2.176 17.088 6.549334 1.92 1.856 3.690667 3.733333 5.312 5.632l2.282666 2.88 75.157334 101.077333 0.042666-90.837333 0.277334-3.008c0.853333-4.928 3.2-9.493333 6.826666-13.610667 5.312-6.016 13.184-8.682667 22.933334-8.682667z m-502.912 2.986667h54.357333l5.546667 0.085333c11.093333 0.405333 20.736 1.984 29.013333 4.821334 9.664 3.349333 17.664 7.850667 23.893333 13.589333 6.357333 5.888 10.944 12.8 13.632 20.693333 2.453333 7.296 3.690667 14.826667 3.690667 22.549334 0 8.213333-1.216 15.573333-3.690667 22.037333-2.496 6.464-5.973333 12.074667-10.432 16.810667l-2.709333 2.666666-2.88 2.453334-1.045333 0.725333c1.706667 1.066667 3.306667 2.197333 4.842666 3.413333l2.24 1.834667 3.242667 2.986667c5.290667 5.333333 9.536 11.861333 12.757333 19.584 3.264 7.872 4.842667 16.96 4.842667 27.242666 0 20.949333-6.613333 37.909333-19.882667 50.133334-12.117333 11.114667-28.885333 16.938667-49.941333 17.770666l-5.354667 0.106667h-62.613333l-3.093333-0.170667c-6.485333-0.597333-12.053333-2.986667-16.192-7.253333a24.021333 24.021333 0 0 1-6.869334-14.037333l-0.149333-2.645334 0.042667-182.186666 0.277333-2.901334c0.853333-4.906667 3.264-9.28 6.976-13.013333 4.266667-4.245333 9.813333-6.570667 16.213333-7.146667l3.285334-0.149333z m47.189333 136.618667h-13.824v38.101333h18.602667c9.301333 0 16.106667-1.749333 20.565333-4.906667 3.349333-2.368 5.034667-6.336 4.906667-13.397333 0-4.736-0.64-8.277333-1.706667-10.602667a11.093333 11.093333 0 0 0-4.096-4.821333 23.445333 23.445333 0 0 0-8.832-3.2 82.154667 82.154667 0 0 0-11.264-1.088l-4.352-0.085333z m6.272-81.834667h-20.096v25.258667h20.096c7.445333 0 11.754667-1.365333 13.461333-3.242667 2.24-2.453333 3.349333-5.504 3.349334-9.685333a13.653333 13.653333 0 0 0-0.832-4.8 9.6 9.6 0 0 0-2.325334-3.477334 12.842667 12.842667 0 0 0-4.693333-2.773333 22.528 22.528 0 0 0-6.272-1.194667l-2.688-0.085333z" fill="#878F95" p-id="4475"></path></svg>